<mxfile host="app.diagrams.net" modified="2022-03-24T07:29:06.156Z" agent="5.0 (Windows NT 10.0; Win64; x64) AppleWebKit/537.36 (KHTML, like Gecko) Chrome/99.0.4844.74 Safari/537.36 Edg/99.0.1150.46" etag="ts9QgT8R-Cevu6J-KBVR" version="16.5.3" type="github">
  <diagram id="WJ-xTmJsoPZ6zfe4-qTc" name="Page-1">
    <mxGraphModel dx="1422" dy="762" grid="1" gridSize="10" guides="1" tooltips="1" connect="1" arrows="1" fold="1" page="1" pageScale="1" pageWidth="827" pageHeight="1169" math="0" shadow="0">
      <root>
        <mxCell id="0" />
        <mxCell id="1" parent="0" />
        <mxCell id="g2d-70zqg2L0dsVTbqSk-1" value="爬虫调度器" style="ellipse;whiteSpace=wrap;html=1;aspect=fixed;" vertex="1" parent="1">
          <mxGeometry x="414" y="50" width="80" height="80" as="geometry" />
        </mxCell>
        <mxCell id="g2d-70zqg2L0dsVTbqSk-2" value="页面内容下载器" style="shape=process;whiteSpace=wrap;html=1;backgroundOutline=1;" vertex="1" parent="1">
          <mxGeometry x="90" y="150" width="120" height="60" as="geometry" />
        </mxCell>
        <mxCell id="g2d-70zqg2L0dsVTbqSk-3" value="Vertical Container" style="swimlane;" vertex="1" parent="1">
          <mxGeometry x="570" y="120" width="200" height="200" as="geometry" />
        </mxCell>
        <mxCell id="g2d-70zqg2L0dsVTbqSk-6" value="数据存储器" style="text;html=1;align=center;verticalAlign=middle;resizable=0;points=[];autosize=1;strokeColor=none;fillColor=none;" vertex="1" parent="g2d-70zqg2L0dsVTbqSk-3">
          <mxGeometry x="60" y="30" width="80" height="20" as="geometry" />
        </mxCell>
        <mxCell id="g2d-70zqg2L0dsVTbqSk-7" value="爬取网页存储与获取" style="rounded=1;whiteSpace=wrap;html=1;" vertex="1" parent="1">
          <mxGeometry x="90" y="50" width="120" height="60" as="geometry" />
        </mxCell>
        <mxCell id="g2d-70zqg2L0dsVTbqSk-8" value="页面内容解析器" style="rounded=1;whiteSpace=wrap;html=1;" vertex="1" parent="1">
          <mxGeometry x="90" y="250" width="120" height="60" as="geometry" />
        </mxCell>
        <object label="" id="g2d-70zqg2L0dsVTbqSk-12">
          <mxCell style="edgeStyle=elbowEdgeStyle;elbow=horizontal;endArrow=classic;html=1;rounded=0;entryX=1;entryY=0.5;entryDx=0;entryDy=0;" edge="1" parent="1" target="g2d-70zqg2L0dsVTbqSk-7">
            <mxGeometry width="50" height="50" relative="1" as="geometry">
              <mxPoint x="420" y="90" as="sourcePoint" />
              <mxPoint x="470" y="40" as="targetPoint" />
            </mxGeometry>
          </mxCell>
        </object>
        <mxCell id="g2d-70zqg2L0dsVTbqSk-13" value="" style="endArrow=classic;html=1;rounded=0;" edge="1" parent="1" target="g2d-70zqg2L0dsVTbqSk-1">
          <mxGeometry width="50" height="50" relative="1" as="geometry">
            <mxPoint x="200" y="100" as="sourcePoint" />
            <mxPoint x="250" y="50" as="targetPoint" />
            <Array as="points">
              <mxPoint x="210" y="80" />
              <mxPoint x="230" y="50" />
              <mxPoint x="270" y="100" />
            </Array>
          </mxGeometry>
        </mxCell>
        <mxCell id="g2d-70zqg2L0dsVTbqSk-14" value="" style="endArrow=classic;html=1;rounded=0;" edge="1" parent="1" target="g2d-70zqg2L0dsVTbqSk-2">
          <mxGeometry width="50" height="50" relative="1" as="geometry">
            <mxPoint x="430" y="120" as="sourcePoint" />
            <mxPoint x="480" y="70" as="targetPoint" />
          </mxGeometry>
        </mxCell>
        <mxCell id="g2d-70zqg2L0dsVTbqSk-15" value="" style="endArrow=classic;html=1;rounded=0;" edge="1" parent="1" target="g2d-70zqg2L0dsVTbqSk-8">
          <mxGeometry width="50" height="50" relative="1" as="geometry">
            <mxPoint x="160" y="200" as="sourcePoint" />
            <mxPoint x="210" y="150" as="targetPoint" />
          </mxGeometry>
        </mxCell>
      </root>
    </mxGraphModel>
  </diagram>
</mxfile>
